<?xml version="1.0" standalone="no"?><!DOCTYPE svg PUBLIC "-//W3C//DTD SVG 1.1//EN" "http://www.w3.org/Graphics/SVG/1.1/DTD/svg11.dtd"><svg t="1638502607306" class="icon" viewBox="0 0 1024 1024" version="1.1" xmlns="http://www.w3.org/2000/svg" p-id="1393" width="48" height="48" xmlns:xlink="http://www.w3.org/1999/xlink"><defs><style type="text/css"></style></defs><path d="M517.76 493.344h-75.52a143.552 143.552 0 0 1-143.584-143.552V274.208a143.552 143.552 0 0 1 143.552-143.552h75.584a143.552 143.552 0 0 1 143.552 143.552v75.584a143.552 143.552 0 0 1-143.552 143.552z" fill="#E0EBFE" p-id="1394"></path><path d="M928 384a32 32 0 0 0-32 32v64h-192V306.24c20 8.896 41.696 13.76 64 13.76 88.224 0 160-71.776 160-160s-71.776-160-160-160c-71.936 0-132.256 48.064-152.32 113.504A157.312 157.312 0 0 0 544 96h-128c-25.216 0-49.632 6.24-71.68 17.504C324.192 48.064 263.904 0 192 0 103.776 0 32 71.776 32 160s71.776 160 160 160c22.304 0 44-4.864 64-13.76V768c0 11.072 1.152 21.888 3.296 32.32-1.12 0-2.176-0.32-3.296-0.32-52.928 0-96 43.072-96 96s43.072 96 96 96a96 96 0 0 0 94.24-78.528A158.464 158.464 0 0 0 416 928h480v64a32 32 0 1 0 64 0V416a32 32 0 0 0-32-32zM256 928a32.032 32.032 0 0 1 0-64 32.032 32.032 0 0 1 0 64z m31.776-766.016a157.6 157.6 0 0 0-27.936 64.416C241.696 245.024 217.536 256 192 256 139.072 256 96 212.928 96 160s43.072-96 96-96 96 43.072 96 96c0 0.672-0.128 1.312-0.224 1.984zM768 64c52.928 0 96 43.072 96 96s-43.072 96-96 96c-25.536 0-49.696-10.944-67.84-29.6a157.504 157.504 0 0 0-27.936-64.416C672.128 161.344 672 160.704 672 160c0-52.928 43.072-96 96-96zM320 256c0-1.824 0.32-3.552 0.576-5.312l0.64-5.056c2.048-19.008 9.6-36.672 21.856-51.168A95.584 95.584 0 0 1 416 160h128c27.84 0 54.432 12.576 72.96 34.496a94.72 94.72 0 0 1 21.824 51.104l0.64 5.088c0.256 1.76 0.576 3.52 0.576 5.312v96c0 52.928-43.072 96-96 96h-128c-52.928 0-96-43.072-96-96V256z m576 352h-112a16 16 0 1 0 0 32H896v128h-112a16 16 0 1 0 0 32H896v64H416c-52.928 0-96-43.072-96-96v-288.832A158.432 158.432 0 0 0 416 512h128c36.16 0 69.184-12.512 96-32.832V512a32 32 0 0 0 32 32h224v64z" fill="#5465CF" p-id="1395"></path><path d="M448 384a32.032 32.032 0 0 0 64 0v-32a32.032 32.032 0 0 0-64 0v32z" fill="#5465CF" p-id="1396"></path><path d="M544 256m-32 0a32 32 0 1 0 64 0 32 32 0 1 0-64 0Z" fill="#5465CF" p-id="1397"></path><path d="M416 256m-32 0a32 32 0 1 0 64 0 32 32 0 1 0-64 0Z" fill="#5465CF" p-id="1398"></path></svg>