<svg width="155" height="30" xmlns="http://www.w3.org/2000/svg" p-id="1393" version="1.1" class="icon" t="1638502607306">
 <g id="Layer_1">
  <title>Layer 1</title>
  <g stroke="null" id="svg_1">
   <path stroke="null" p-id="1394" fill="#E0EBFE" d="m15.74886,14.42732l-2.28833,0a4.34977,4.00902 0 0 1 -4.35074,-4.00902l0,-2.11086a4.34977,4.00902 0 0 1 4.34977,-4.00902l2.29027,0a4.34977,4.00902 0 0 1 4.34977,4.00902l0,2.11086a4.34977,4.00902 0 0 1 -4.34977,4.00902l-0.00097,0z" id="svg_2"/>
   <path stroke="null" p-id="1395" fill="#5465CF" d="m28.17954,11.37363a0.96963,0.89367 0 0 0 -0.96963,0.89367l0,1.78735l-5.81779,0l0,-4.85265c0.60602,0.24844 1.26343,0.38428 1.93926,0.38428c2.67327,0 4.84816,-2.00451 4.84816,-4.46837s-2.17488,-4.46837 -4.84816,-4.46837c-2.17973,0 -4.00749,1.3423 -4.61545,3.16986a4.76671,4.3933 0 0 0 -2.17197,-0.48884l-3.87853,0c-0.76407,0 -1.5039,0.17427 -2.17197,0.48884c-0.6099,-1.82756 -2.43668,-3.16986 -4.61545,-3.16986c-2.67327,0 -4.84816,2.00451 -4.84816,4.46837s2.17488,4.46837 4.84816,4.46837c0.67583,0 1.33324,-0.13584 1.93926,-0.38428l0,12.89572c0,0.30921 0.03491,0.61127 0.09987,0.90261c-0.03394,0 -0.06594,-0.00894 -0.09987,-0.00894c-1.60377,0 -2.90889,1.20289 -2.90889,2.68102s1.30512,2.68102 2.90889,2.68102a2.90889,2.68102 0 0 0 2.85556,-2.19308a4.80162,4.42547 0 0 0 1.99259,0.40573l14.54447,0l0,1.78735a0.96963,0.89367 0 1 0 1.93926,0l0,-16.08614a0.96963,0.89367 0 0 0 -0.96963,-0.89367zm-20.36226,15.19246a0.9706,0.89457 0 0 1 0,-1.78735a0.9706,0.89457 0 0 1 0,1.78735zm0.96284,-21.39277a4.77543,4.40135 0 0 0 -0.84649,1.79897c-0.54978,0.52012 -1.28185,0.82665 -2.05562,0.82665c-1.60377,0 -2.90889,-1.20289 -2.90889,-2.68102s1.30512,-2.68102 2.90889,-2.68102s2.90889,1.20289 2.90889,2.68102c0,0.01877 -0.00388,0.03664 -0.00679,0.05541l0,0zm14.55126,-2.73643c1.60377,0 2.90889,1.20289 2.90889,2.68102s-1.30512,2.68102 -2.90889,2.68102c-0.77377,0 -1.50584,-0.30564 -2.05562,-0.82665a4.77253,4.39866 0 0 0 -0.84649,-1.79897c-0.00291,-0.01787 -0.00679,-0.03575 -0.00679,-0.05541c0,-1.47814 1.30512,-2.68102 2.90889,-2.68102l0,0zm-13.57484,5.36205c0,-0.05094 0.0097,-0.0992 0.01745,-0.14835l0.01939,-0.1412c0.06206,-0.53084 0.29089,-1.02415 0.66226,-1.42899a2.89629,2.6694 0 0 1 2.20979,-0.96249l3.87853,0c0.84358,0 1.64934,0.35121 2.21076,0.96338a2.87011,2.64528 0 0 1 0.66129,1.4272l0.01939,0.14209c0.00776,0.04915 0.01745,0.0983 0.01745,0.14835l0,2.68102c0,1.47814 -1.30512,2.68102 -2.90889,2.68102l-3.87853,0c-1.60377,0 -2.90889,-1.20289 -2.90889,-2.68102l0,-2.68102l0,0zm17.45337,9.83042l-3.39371,0a0.48482,0.44684 0 1 0 0,0.89367l3.39371,0l0,3.5747l-3.39371,0a0.48482,0.44684 0 1 0 0,0.89367l3.39371,0l0,1.78735l-14.54447,0c-1.60377,0 -2.90889,-1.20289 -2.90889,-2.68102l0,-8.0663a4.80065,4.42458 0 0 0 2.90889,0.91691l3.87853,0c1.09568,0 2.09634,-0.34943 2.90889,-0.91691l0,0.91691a0.96963,0.89367 0 0 0 0.96963,0.89367l6.78742,0l0,1.78735z" id="svg_3"/>
   <path stroke="null" p-id="1396" fill="#5465CF" d="m13.63507,11.37363a0.9706,0.89457 0 0 0 1.93926,0l0,-0.89367a0.9706,0.89457 0 0 0 -1.93926,0l0,0.89367z" id="svg_4"/>
   <path stroke="null" p-id="1397" fill="#5465CF" d="m16.54396,7.79893m-0.96963,0a0.96963,0.89367 0 1 0 1.93926,0a0.96963,0.89367 0 1 0 -1.93926,0z" id="svg_5"/>
   <path stroke="null" p-id="1398" fill="#5465CF" d="m12.66544,7.79893m-0.96963,0a0.96963,0.89367 0 1 0 1.93926,0a0.96963,0.89367 0 1 0 -1.93926,0z" id="svg_6"/>
  </g>
  <text font-weight="bold" xml:space="preserve" text-anchor="start" font-family="Noto Sans JP" font-size="20" id="svg_8" y="22.61644" x="37.17212" stroke-width="0" stroke="null" fill="#5465CF">Go 学习教程</text>
 </g>

</svg>